<svg xmlns="http://www.w3.org/2000/svg" xmlns:xlink="http://www.w3.org/1999/xlink" width="36pt" height="36pt" viewBox="0 0 36 36" version="1.1">
<g id="surface1">
<path d="M 34.542969 22.375 L 31.527344 20.632812 C 31.832031 18.988281 31.832031 17.300781 31.527344 15.65625 L 34.542969 13.914062 C 34.894531 13.714844 35.046875 13.300781 34.933594 12.921875 C 34.148438 10.398438 32.808594 8.113281 31.0625 6.214844 C 30.789062 5.925781 30.347656 5.851562 30.007812 6.054688 L 26.992188 7.796875 C 25.722656 6.703125 24.261719 5.863281 22.679688 5.308594 L 22.679688 1.824219 C 22.679688 1.433594 22.402344 1.082031 22.019531 0.996094 C 19.414062 0.417969 16.75 0.449219 14.277344 0.996094 C 13.886719 1.082031 13.609375 1.433594 13.609375 1.824219 L 13.609375 5.320312 C 12.039062 5.875 10.574219 6.71875 9.300781 7.800781 L 6.289062 6.0625 C 5.941406 5.863281 5.507812 5.925781 5.238281 6.226562 C 3.488281 8.113281 2.148438 10.398438 1.359375 12.929688 C 1.242188 13.3125 1.40625 13.722656 1.753906 13.921875 L 4.769531 15.660156 C 4.46875 17.304688 4.46875 18.996094 4.769531 20.640625 L 1.753906 22.386719 C 1.402344 22.585938 1.246094 22.992188 1.359375 23.375 C 2.148438 25.902344 3.488281 28.183594 5.238281 30.082031 C 5.507812 30.371094 5.949219 30.445312 6.289062 30.246094 L 9.304688 28.5 C 10.574219 29.59375 12.03125 30.4375 13.613281 30.988281 L 13.613281 34.476562 C 13.613281 34.871094 13.890625 35.21875 14.285156 35.304688 C 16.886719 35.886719 19.550781 35.859375 22.023438 35.304688 C 22.414062 35.21875 22.6875 34.871094 22.6875 34.476562 L 22.6875 30.988281 C 24.261719 30.425781 25.722656 29.589844 26.996094 28.5 L 30.019531 30.246094 C 30.363281 30.445312 30.796875 30.382812 31.066406 30.082031 C 32.820312 28.1875 34.160156 25.90625 34.945312 23.375 C 35.046875 22.988281 34.894531 22.574219 34.542969 22.375 Z M 18.144531 23.816406 C 15.019531 23.816406 12.476562 21.269531 12.476562 18.144531 C 12.476562 15.019531 15.019531 12.476562 18.144531 12.476562 C 21.269531 12.476562 23.816406 15.019531 23.816406 18.144531 C 23.816406 21.269531 21.269531 23.816406 18.144531 23.816406 Z M 18.144531 23.816406 "/>
</g>
</svg>
