<svg xmlns="http://www.w3.org/2000/svg" xmlns:xlink="http://www.w3.org/1999/xlink" width="30pt" height="33pt" viewBox="0 0 30 33" version="1.1">
<g>
<path d="M 14.621094 16.214844 C 19.238281 16.214844 22.980469 12.585938 22.980469 8.109375 C 22.980469 3.628906 19.238281 0 14.621094 0 C 10.007812 0 6.265625 3.628906 6.265625 8.109375 C 6.265625 12.585938 10.007812 16.214844 14.621094 16.214844 Z M 20.46875 18.242188 L 19.382812 18.242188 C 17.929688 18.886719 16.320312 19.253906 14.621094 19.253906 C 12.929688 19.253906 11.320312 18.886719 9.867188 18.242188 L 8.773438 18.242188 C 3.929688 18.242188 0 22.054688 0 26.753906 L 0 29.390625 C 0 31.066406 1.402344 32.433594 3.132812 32.433594 L 26.117188 32.433594 C 27.84375 32.433594 29.25 31.066406 29.25 29.390625 L 29.25 26.753906 C 29.25 22.054688 25.316406 18.242188 20.46875 18.242188 Z M 20.46875 18.242188 "/>
</g>
</svg>
