<svg xmlns="http://www.w3.org/2000/svg" xmlns:xlink="http://www.w3.org/1999/xlink" width="50pt" height="50pt" viewBox="0 0 50 50" version="1.1">
<g>
<path d="M 25 0 C 15.507812 0 7.8125 7.695312 7.8125 17.1875 L 7.8125 32.8125 C 7.8125 42.304688 15.507812 50 25 50 C 34.492188 50 42.1875 42.304688 42.1875 32.8125 L 42.1875 17.1875 C 42.1875 7.695312 34.492188 0 25 0 Z M 39.0625 32.8125 C 39.0625 40.566406 32.753906 46.875 25 46.875 C 17.246094 46.875 10.9375 40.566406 10.9375 32.8125 L 10.9375 17.1875 C 10.9375 9.433594 17.246094 3.125 25 3.125 C 32.753906 3.125 39.0625 9.433594 39.0625 17.1875 Z M 25 7.8125 C 22.410156 7.8125 20.3125 9.910156 20.3125 12.5 L 20.3125 18.75 C 20.3125 21.339844 22.410156 23.4375 25 23.4375 C 27.589844 23.4375 29.6875 21.339844 29.6875 18.75 L 29.6875 12.5 C 29.6875 9.910156 27.589844 7.8125 25 7.8125 Z M 26.5625 18.75 C 26.5625 19.613281 25.863281 20.3125 25 20.3125 C 24.136719 20.3125 23.4375 19.613281 23.4375 18.75 L 23.4375 12.5 C 23.4375 11.636719 24.136719 10.9375 25 10.9375 C 25.863281 10.9375 26.5625 11.636719 26.5625 12.5 Z M 26.5625 18.75 "/>
</g>
</svg>
