<svg xmlns="http://www.w3.org/2000/svg" xmlns:xlink="http://www.w3.org/1999/xlink" width="19pt" height="17pt" viewBox="0 0 19 17" version="1.1">
<g>
<path d="M 17.414062 7.4375 L 15.832031 7.4375 L 15.832031 5.84375 C 15.832031 4.964844 15.125 4.25 14.25 4.25 L 8.972656 4.25 L 6.859375 2.125 L 1.582031 2.125 C 0.710938 2.125 0 2.839844 0 3.71875 L 0 13.28125 C 0 14.160156 0.710938 14.875 1.582031 14.875 L 14.777344 14.875 C 15.320312 14.875 15.828125 14.59375 16.121094 14.125 L 18.757812 9.875 C 19.414062 8.816406 18.65625 7.4375 17.414062 7.4375 Z M 1.582031 3.917969 C 1.582031 3.808594 1.671875 3.71875 1.78125 3.71875 L 6.203125 3.71875 L 8.316406 5.84375 L 14.050781 5.84375 C 14.160156 5.84375 14.25 5.933594 14.25 6.042969 L 14.25 7.4375 L 5.015625 7.4375 C 4.460938 7.4375 3.945312 7.730469 3.65625 8.207031 L 1.582031 11.667969 Z M 14.777344 13.28125 L 2.375 13.28125 L 4.921875 9.03125 L 17.417969 9.03125 Z M 14.777344 13.28125 "/>
</g>
</svg>
