<svg xmlns="http://www.w3.org/2000/svg" xmlns:xlink="http://www.w3.org/1999/xlink" width="13pt" height="17pt" viewBox="0 0 13 17" version="1.1">
<g id="surface1">
<path style=" stroke:none;fill-rule:nonzero;fill:rgb(0%,0%,0%);fill-opacity:1;" d="M 5.074219 11.589844 L 5.066406 11.585938 L 3.957031 10.625 L 5.066406 9.664062 C 5.191406 9.558594 5.203125 9.375 5.09375 9.253906 L 5.089844 9.246094 L 4.5 8.628906 C 4.382812 8.511719 4.195312 8.507812 4.078125 8.617188 L 2.125 10.414062 C 2 10.527344 2 10.726562 2.125 10.835938 L 4.078125 12.632812 C 4.132812 12.683594 4.207031 12.714844 4.28125 12.714844 C 4.363281 12.714844 4.445312 12.679688 4.5 12.621094 L 5.089844 12.003906 C 5.199219 11.886719 5.191406 11.699219 5.074219 11.589844 Z M 12.523438 3.25 L 9.683594 0.464844 C 9.378906 0.164062 8.964844 -0.00390625 8.535156 -0.00390625 L 1.625 -0.00390625 C 0.726562 0 0 0.714844 0 1.59375 L 0 15.40625 C 0 16.285156 0.726562 17 1.625 17 L 11.375 17 C 12.273438 17 13 16.285156 13 15.40625 L 13 4.378906 C 13 3.957031 12.828125 3.550781 12.523438 3.25 Z M 8.667969 1.722656 L 11.242188 4.25 L 8.667969 4.25 Z M 11.375 15.40625 L 1.625 15.40625 L 1.625 1.59375 L 7.042969 1.59375 L 7.042969 5.046875 C 7.042969 5.488281 7.402344 5.84375 7.855469 5.84375 L 11.375 5.84375 Z M 7.097656 7.105469 C 6.9375 7.058594 6.773438 7.148438 6.726562 7.304688 L 4.875 13.550781 C 4.828125 13.707031 4.917969 13.867188 5.078125 13.914062 L 5.902344 14.148438 C 6.0625 14.195312 6.230469 14.101562 6.273438 13.949219 L 8.125 7.699219 C 8.171875 7.542969 8.082031 7.382812 7.921875 7.335938 Z M 7.925781 9.660156 L 7.933594 9.664062 L 9.042969 10.625 L 7.933594 11.585938 C 7.808594 11.691406 7.796875 11.875 7.90625 11.996094 L 7.910156 12.003906 L 8.5 12.621094 C 8.613281 12.738281 8.800781 12.742188 8.921875 12.632812 L 10.875 10.835938 C 11 10.722656 11 10.523438 10.875 10.414062 L 8.921875 8.617188 C 8.800781 8.507812 8.613281 8.511719 8.5 8.628906 L 7.910156 9.246094 C 7.800781 9.363281 7.808594 9.550781 7.925781 9.660156 Z M 7.925781 9.660156 "/>
</g>
</svg>
