<svg xmlns="http://www.w3.org/2000/svg" xmlns:xlink="http://www.w3.org/1999/xlink" width="19pt" height="17pt" viewBox="0 0 19 17" version="1.1">
<g id="surface1">
<path style=" stroke:none;fill-rule:nonzero;fill:rgb(0%,0%,0%);fill-opacity:1;" d="M 17.417969 1.0625 L 1.582031 1.0625 C 0.710938 1.0625 0 1.777344 0 2.65625 L 0 14.34375 C 0 15.222656 0.710938 15.9375 1.582031 15.9375 L 17.417969 15.9375 C 18.289062 15.9375 19 15.222656 19 14.34375 L 19 2.65625 C 19 1.777344 18.289062 1.0625 17.417969 1.0625 Z M 17.417969 14.34375 L 10 14.34375 C 10.03125 14.195312 10.027344 14.464844 10.027344 13.601562 C 10.027344 12.542969 9.035156 11.6875 7.8125 11.6875 C 7.453125 11.6875 7.195312 11.953125 6.332031 11.953125 C 5.445312 11.953125 5.230469 11.6875 4.855469 11.6875 C 3.632812 11.6875 2.640625 12.542969 2.640625 13.601562 C 2.640625 14.464844 2.632812 14.195312 2.664062 14.34375 L 1.582031 14.34375 L 1.582031 4.78125 L 17.417969 4.78125 Z M 11.875 11.6875 L 15.570312 11.6875 C 15.714844 11.6875 15.832031 11.566406 15.832031 11.421875 L 15.832031 10.890625 C 15.832031 10.746094 15.714844 10.625 15.570312 10.625 L 11.875 10.625 C 11.730469 10.625 11.609375 10.746094 11.609375 10.890625 L 11.609375 11.421875 C 11.609375 11.566406 11.730469 11.6875 11.875 11.6875 Z M 11.875 9.5625 L 15.570312 9.5625 C 15.714844 9.5625 15.832031 9.441406 15.832031 9.296875 L 15.832031 8.765625 C 15.832031 8.621094 15.714844 8.5 15.570312 8.5 L 11.875 8.5 C 11.730469 8.5 11.609375 8.621094 11.609375 8.765625 L 11.609375 9.296875 C 11.609375 9.441406 11.730469 9.5625 11.875 9.5625 Z M 11.875 7.4375 L 15.570312 7.4375 C 15.714844 7.4375 15.832031 7.316406 15.832031 7.171875 L 15.832031 6.640625 C 15.832031 6.496094 15.714844 6.375 15.570312 6.375 L 11.875 6.375 C 11.730469 6.375 11.609375 6.496094 11.609375 6.640625 L 11.609375 7.171875 C 11.609375 7.316406 11.730469 7.4375 11.875 7.4375 Z M 6.332031 10.625 C 7.496094 10.625 8.445312 9.671875 8.445312 8.5 C 8.445312 7.328125 7.496094 6.375 6.332031 6.375 C 5.167969 6.375 4.222656 7.328125 4.222656 8.5 C 4.222656 9.671875 5.167969 10.625 6.332031 10.625 Z M 6.332031 10.625 "/>
</g>
</svg>
